# File created by Blade
# Date/Time:  Fri Jan 16 19:32:27 2015
#---------------------------------------------------------
:version 1.10
:name HOM
:units
  mass 1.0
  length 1.000000
  angle deg
:documentation
     Acclaim Skeleton File
:root
   axis xyz
   order TX TY TZ RX RY RZ
   position 0.000000 0.000000 0.000000
   orientation 0 0 0
:bonedata
   begin
      id 1
      name Spine_dum
      direction 0.000000 1.000000 0.000000
      length 7.067664
      axis 0.0 0.0 0.0 xyz
   end
   begin
      id 2
      name LeftUpLeg_dum
      direction 1.000000 0.000000 0.000000
      length 4.013002
      axis 0.0 0.0 0.0 xyz
   end
   begin
      id 3
      name RightUpLeg_dum
      direction -1.000000 0.000000 0.000000
      length 4.013002
      axis 0.0 0.0 0.0 xyz
   end
   begin
      id 4
      name Spine
      direction 0.000000 1.000000 0.000000
      length 0.000000
      axis 0.0 0.0 0.0 xyz
      dof rx ry rz
   end
   begin
      id 5
      name Spine_dum1
      direction 0.000000 1.000000 0.000000
      length 15.039886
      axis 0.0 0.0 0.0 xyz
   end
   begin
      id 6
      name Spine_dum2
      direction 0.000000 1.000000 0.000000
      length 10.530368
      axis 0.0 0.0 0.0 xyz
   end
   begin
      id 7
      name Spine_dum3
      direction 0.000000 1.000000 0.000000
      length 10.530368
      axis 0.0 0.0 0.0 xyz
   end
   begin
      id 8
      name Head
      direction 0.000000 1.000000 0.000000
      length 4.527550
      axis 0.0 0.0 0.0 xyz
      dof rx ry rz
   end
   begin
      id 9
      name LeftShoulder
      direction 1.000000 0.000000 0.000000
      length 7.028855
      axis 0.0 0.0 -90.0 xyz
      dof rx ry rz
   end
   begin
      id 10
      name LeftArm
      direction 1.000000 0.000000 0.000000
      length 10.797705
      axis 0.0 0.0 -90.0 xyz
      dof rx ry rz
   end
   begin
      id 11
      name LeftForeArm
      direction 1.000000 0.000000 0.000000
      length 7.907442
      axis 0.0 0.0 -90.0 xyz
      dof ry rz rx
   end
   begin
      id 12
      name LeftHand
      direction 0.000000 0.000000 0.000000
      length 0.000000
      axis 0.0 0.0 -90.0 xyz
      dof rx ry rz
   end
   begin
      id 13
      name LeftHand_dum1
      direction 0.000000 0.000000 0.000000
      length 0.000000
      axis 0.0 0.0 -90.0 xyz
   end
   begin
      id 14
      name LeftHand_dum2
      direction 1.000000 0.000000 0.000000
      length 3.937000
      axis 0.0 0.0 -90.0 xyz
   end
   begin
      id 15
      name LeftHandThumb1
      direction 0.000000 0.000000 1.000000
      length 3.937000
      axis 0.0 0.0 -90.0 xyz
      dof rx rz ry
   end
   begin
      id 16
      name RightShoulder
      direction -1.000000 0.000000 0.000000
      length 7.028855
      axis 0.0 0.0 90.0 xyz
      dof rx ry rz
   end
   begin
      id 17
      name RightArm
      direction -1.000000 0.000000 0.000000
      length 10.797705
      axis 0.0 0.0 90.0 xyz
      dof rx ry rz
   end
   begin
      id 18
      name RightForeArm
      direction -1.000000 0.000000 0.000000
      length 7.907442
      axis 0.0 0.0 90.0 xyz
      dof ry rz rx
   end
   begin
      id 19
      name RightHand
      direction 0.000000 0.000000 0.000000
      length 0.000000
      axis 0.0 0.0 90.0 xyz
      dof rx ry rz
   end
   begin
      id 20
      name RightHand_dum1
      direction 0.000000 0.000000 0.000000
      length 0.000000
      axis 0.0 0.0 90.0 xyz
   end
   begin
      id 21
      name RightHand_dum2
      direction -1.000000 0.000000 0.000000
      length 3.937000
      axis 0.0 0.0 90.0 xyz
   end
   begin
      id 22
      name RightHandThumb1
      direction 0.000000 0.000000 1.000000
      length 3.937000
      axis 0.0 0.0 90.0 xyz
      dof rx rz ry
   end
   begin
      id 23
      name LeftUpLeg
      direction 0.000000 -1.000000 0.000000
      length 16.899758
      axis 0.0 0.0 0.0 xyz
      dof rx ry rz
   end
   begin
      id 24
      name LeftLeg
      direction 0.000000 -1.000000 0.000000
      length 17.389183
      axis 0.0 0.0 0.0 xyz
      dof rx ry rz
   end
   begin
      id 25
      name LeftFoot
      direction 0.000000 -0.258819 0.965926
      length 4.924528
      axis 15.0 0.0 0.0 xyz
      dof rx ry rz
   end
   begin
      id 26
      name LeftToeBase
      direction 0.000000 0.000000 1.000000
      length 2.952750
      axis 0.0 0.0 0.0 xyz
      dof rx ry rz
   end
   begin
      id 27
      name RightUpLeg
      direction 0.000000 -1.000000 0.000000
      length 16.899758
      axis 0.0 0.0 0.0 xyz
      dof rx ry rz
   end
   begin
      id 28
      name RightLeg
      direction 0.000000 -1.000000 0.000000
      length 17.389183
      axis 0.0 0.0 0.0 xyz
      dof rx ry rz
   end
   begin
      id 29
      name RightFoot
      direction 0.000000 -0.258819 0.965926
      length 4.924528
      axis 15.0 0.0 0.0 xyz
      dof rx ry rz
   end
   begin
      id 30
      name RightToeBase
      direction 0.000000 0.000000 1.000000
      length 2.952750
      axis 0.0 0.0 0.0 xyz
      dof rx ry rz
   end
:hierarchy
   begin
      root Spine_dum LeftUpLeg_dum RightUpLeg_dum
      Spine_dum Spine
      LeftUpLeg_dum LeftUpLeg
      RightUpLeg_dum RightUpLeg
      Spine Spine_dum1 Spine_dum2 Spine_dum3
      Spine_dum1 Head
      Spine_dum2 LeftShoulder
      Spine_dum3 RightShoulder
      LeftShoulder LeftArm
      LeftArm LeftForeArm
      LeftForeArm LeftHand
      LeftHand LeftHand_dum1 LeftHand_dum2
      LeftHand_dum1 LeftHandThumb1
      RightShoulder RightArm
      RightArm RightForeArm
      RightForeArm RightHand
      RightHand RightHand_dum1 RightHand_dum2
      RightHand_dum1 RightHandThumb1
      LeftUpLeg LeftLeg
      LeftLeg LeftFoot
      LeftFoot LeftToeBase
      RightUpLeg RightLeg
      RightLeg RightFoot
      RightFoot RightToeBase
   end

# File created by Blade
# Date/Time:  Fri Jan 16 19:32:17 2015
# Frame Rate: 120.000 fps
#------------------------------------------------------
:FULLY-SPECIFIED
:DEGREES
71
root 19.015873 35.438064 -20.602337 9.943788 2.459234 -1.691570
Spine -21.534217 -1.453093 0.945825
Head 4.382787 1.232115 0.494079
LeftShoulder -12.556017 -20.919775 18.048595
LeftArm -0.564464 32.003913 -16.520832
LeftForeArm 11.828859 -0.000000 4.473827
LeftHand -7.196142 -0.000000 -2.348178
LeftHandThumb1 -26.253704 0.000000 33.147579
RightShoulder -13.371296 -7.220796 -7.591813
RightArm 9.707299 39.919579 15.402962
RightForeArm -28.301734 0.000000 5.116892
RightHand -5.113276 -0.000000 8.112770
RightHandThumb1 -24.326973 -0.000000 -32.862282
LeftUpLeg -0.938542 8.322357 2.666826
LeftLeg -6.482510 -0.000000 0.000000
LeftFoot -20.787631 27.731128 -12.843755
LeftToeBase 26.969463 -0.000000 -0.000000
RightUpLeg -0.989061 -11.818256 0.688796
RightLeg -4.339106 -0.000000 0.000000
RightFoot -21.031909 -22.242525 16.453720
RightToeBase 25.851060 -0.000000 -0.000000
72
root 19.015700 35.438850 -20.604736 9.925863 2.487963 -1.698169
Spine -21.446139 -1.543258 0.956460
Head 4.298174 1.254091 0.617322
LeftShoulder -12.371187 -20.294904 18.025112
LeftArm -1.467716 34.773029 -17.809892
LeftForeArm 12.479932 -0.000000 5.171260
LeftHand -6.786298 -0.000000 -2.246721
LeftHandThumb1 -26.253704 0.000000 33.147579
RightShoulder -13.384800 -7.155322 -7.523111
RightArm 9.628301 40.497558 15.356067
RightForeArm -26.989197 -0.000000 5.144835
RightHand -5.184677 -0.000000 7.941032
RightHandThumb1 -24.326973 -0.000000 -32.862282
LeftUpLeg -0.928737 8.299706 2.679679
LeftLeg -6.483960 -0.000000 0.000000
LeftFoot -20.777730 27.723782 -12.843097
LeftToeBase 26.929845 -0.000000 -0.000000
RightUpLeg -0.969251 -11.842544 0.697728
RightLeg -4.344946 -0.000000 0.000000
RightFoot -21.040848 -22.232935 16.515448
RightToeBase 25.858702 -0.000000 -0.000000
73
root 19.017329 35.439780 -20.604795 9.920642 2.471592 -1.700662
Spine -21.384331 -1.572745 0.963402
Head 4.229565 1.263740 0.694823
LeftShoulder -12.178340 -19.682972 18.034762
LeftArm -2.564603 37.520970 -19.344723
LeftForeArm 13.517640 0.000000 6.007344
LeftHand -6.981626 -0.000000 -2.866739
LeftHandThumb1 -26.253704 0.000000 33.147579
RightShoulder -13.419468 -7.071687 -7.486367
RightArm 9.554783 41.046197 15.325033
RightForeArm -25.513630 -0.000000 5.213146
RightHand -5.229581 -0.000000 7.734611
RightHandThumb1 -24.326973 -0.000000 -32.862282
LeftUpLeg -0.909154 8.327017 2.676150
LeftLeg -6.508250 -0.000000 0.000000
LeftFoot -20.753482 27.722660 -12.822973
LeftToeBase 26.939429 -0.000000 -0.000000
RightUpLeg -0.964217 -11.834462 0.693544
RightLeg -4.348437 -0.000000 0.000000
RightFoot -21.025131 -22.226021 16.526827
RightToeBase 25.837164 -0.000000 -0.000000
74
root 19.018710 35.440762 -20.606409 9.907013 2.483843 -1.702178
Spine -21.316085 -1.629149 0.963606
Head 4.178094 1.286833 0.805939
LeftShoulder -11.892432 -19.149357 18.016121
LeftArm -3.895619 39.847706 -21.075692
LeftForeArm 14.286955 -0.000000 6.804018
LeftHand -6.635915 -0.000000 -3.109920
LeftHandThumb1 -26.253704 0.000000 33.147579
RightShoulder -13.421743 -6.974216 -7.425648
RightArm 9.401106 41.635291 15.209678
RightForeArm -24.122150 -0.000000 5.249739
RightHand -5.243171 0.000000 7.514942
RightHandThumb1 -24.326973 -0.000000 -32.862282
LeftUpLeg -0.893325 8.313936 2.677441
LeftLeg -6.522459 -0.000000 0.000000
LeftFoot -20.742357 27.725761 -12.836880
LeftToeBase 26.951808 -0.000000 -0.000000
RightUpLeg -0.944516 -11.842090 0.686228
RightLeg -4.354102 -0.000000 0.000000
RightFoot -21.015651 -22.189975 16.563362
RightToeBase 25.807087 -0.000000 -0.000000
75
root 19.020430 35.441842 -20.606827 9.879539 2.507201 -1.711486
Spine -21.231509 -1.696128 0.982866
Head 4.127609 1.294850 0.894883
LeftShoulder -11.704437 -18.608792 18.029016
LeftArm -5.172703 42.111904 -22.939303
LeftForeArm 15.128616 -0.000000 7.666133
LeftHand -6.557093 -0.000000 -3.758289
LeftHandThumb1 -26.253704 0.000000 33.147579
RightShoulder -13.415637 -6.883239 -7.369702
RightArm 9.209475 42.289924 15.075596
RightForeArm -22.849826 -0.000000 5.323211
RightHand -5.204617 0.000000 7.189217
RightHandThumb1 -24.326973 -0.000000 -32.862282
LeftUpLeg -0.859534 8.283061 2.691386
LeftLeg -6.542608 -0.000000 0.000000
LeftFoot -20.730119 27.730292 -12.844091
LeftToeBase 26.946839 -0.000000 -0.000000
RightUpLeg -0.906375 -11.879090 0.691563
RightLeg -4.373288 -0.000000 0.000000
RightFoot -20.998541 -22.180329 16.583171
RightToeBase 25.846758 -0.000000 -0.000000
